HIERARCHY
ROOT Hips
{
	OFFSET 0.000000 0.000000 0.000000 
	CHANNELS 6 Xposition Yposition Zposition Yrotation Zrotation Xrotation 
	JOINT Lumbar
	{
		OFFSET 0.000000 0.000000 0.000000 
		CHANNELS 3 Zrotation Xrotation Yrotation
		JOINT Neck
		{
			OFFSET 0.000000 0.445665 0.000000 
			CHANNELS 3 Zrotation Xrotation Yrotation
			End Site
			{
				OFFSET 0.000000 0.227535 0.000000 
			}
		}
		JOINT RightShoulder
		{
			OFFSET 0.019635 0.377685 0.194865 
			CHANNELS 3 Zrotation Xrotation Yrotation
			JOINT RightElbow
			{
				OFFSET 0.000000 -0.243375 0.000000 
				CHANNELS 2 Zrotation Yrotation
				JOINT RightWrist
				{
					OFFSET 0.000000 -0.264825 0.000000 
					CHANNELS 2 Zrotation Xrotation
					End Site
					{
						OFFSET 0.006600 -0.176220 0.000990 
					}
				}
			}
		}
		JOINT LeftShoulder
		{
			OFFSET 0.019635 0.377685 -0.194865 
			CHANNELS 3 Zrotation Xrotation Yrotation
			JOINT LeftElbow
			{
				OFFSET 0.000000 -0.243375 0.000000 
				CHANNELS 2 Zrotation Yrotation
				JOINT LeftWrist
				{
					OFFSET 0.000000 -0.264825 0.000000 
					CHANNELS 2 Zrotation Xrotation
					End Site
					{
						OFFSET 0.006600 -0.176220 -0.000990 
					}
				}
			}
		}
	}
	JOINT RightHip
	{
		OFFSET 0.052140 -0.069960 0.075570 
		CHANNELS 3 Zrotation Xrotation Yrotation
		JOINT RightKnee
		{
			OFFSET 0.000000 -0.402270 0.000000 
			CHANNELS 1 Zrotation
			JOINT RightAnkle
			{
				OFFSET 0.000000 -0.404085 0.000000 
				CHANNELS 3 Zrotation Xrotation Yrotation
				End Site
				{
					OFFSET 0.204105 -0.089430 0.008415 
				}
			}
		}
	}
	JOINT LeftHip
	{
		OFFSET 0.052140 -0.069960 -0.075570 
		CHANNELS 3 Zrotation Xrotation Yrotation
		JOINT LeftKnee
		{
			OFFSET 0.000000 -0.402270 0.000000 
			CHANNELS 1 Zrotation
			JOINT LeftAnkle
			{
				OFFSET 0.000000 -0.404085 0.000000 
				CHANNELS 3 Zrotation Xrotation Yrotation
				End Site
				{
					OFFSET 0.204105 -0.089430 -0.008415 
				}
			}
		}
	}
}
MOTION
Frames: 28
Frame Time: 0.02
0.41161 0.71358 -0.03224 185.36143 0 -5.41841 -1.27263 6.88809 -0.30226 -5.89407 -14.32206 -6.03297 8.32045 -2.37209 20.66351 130.47581 127.41502 -58.21275 -7.79395 32.78983 25.17349 -21.6737 133.62144 -133.20151 -61.46662 1.90012 64.31932 4.0878 -11.12463 -87.58234 -0.2195 -0.34943 4.3664 67.86527 -2.56608 -5.00373 -93.74482 -0.33777 0.78113 -2.73167
0.41178 0.71328 -0.03242 185.39038 0 -5.42064 -1.10225 6.8145 -0.31489 -5.52929 -13.95666 -5.76314 8.11994 -2.6863 20.80553 130.4462 127.32557 -58.16962 -7.84625 32.18254 24.74517 -21.90957 133.63187 -131.89793 -61.82206 2.69966 64.30326 4.03741 -11.27979 -87.5968 -0.12065 -0.3864 4.18613 67.91078 -2.59486 -5.03818 -93.779 -0.35752 0.77408 -2.75104
0.41185 0.71304 -0.03273 185.41051 0 -5.41835 -0.9008 6.68705 -0.37266 -5.40917 -13.22177 -5.46632 8.41697 -3.34327 21.00077 130.50701 127.16722 -58.03584 -7.92063 31.88463 24.15662 -22.32914 133.65095 -129.70558 -62.34942 4.07056 64.27481 4.00782 -11.43092 -87.60029 -0.00808 -0.42711 3.98973 67.94955 -2.59083 -5.06054 -93.80982 -0.37778 0.75884 -2.79936
0.41197 0.71278 -0.03296 185.43259 0 -5.41884 -0.71127 6.58341 -0.41282 -5.20073 -12.63998 -5.18273 8.51748 -3.85424 21.16739 130.53391 127.03271 -57.93036 -7.98013 31.46826 23.63148 -22.65083 133.66519 -127.98543 -62.80434 5.13585 64.25353 3.9728 -11.57516 -87.60766 0.09363 -0.46372 3.81136 67.99114 -2.60038 -5.08831 -93.84149 -0.39888 0.74785 -2.83387
0.41207 0.71248 -0.03323 185.46342 0 -5.41612 -0.53153 6.4818 -0.44125 -4.89272 -12.11293 -4.88975 8.49236 -4.32959 21.35264 130.52729 126.92704 -57.87413 -8.05978 30.94414 23.13754 -23.03397 133.68294 -125.98389 -63.24224 6.38366 64.22577 3.92031 -11.75696 -87.62005 0.21546 -0.51046 3.58741 68.03383 -2.61576 -5.11572 -93.87627 -0.41502 0.7351 -2.86917
0.41218 0.71228 -0.03347 185.47427 0 -5.41906 -0.32401 6.36359 -0.5049 -4.85145 -11.38798 -4.61121 8.8456 -4.95685 21.50998 130.61183 126.74735 -57.69731 -8.10279 30.72073 22.54338 -23.3332 133.69549 -124.35086 -63.75151 7.39182 64.20865 3.90933 -11.85923 -87.6197 0.29881 -0.53707 3.45435 68.07276 -2.61157 -5.14173 -93.90401 -0.44171 0.72372 -2.91103
0.41237 0.71235 -0.03357 185.42746 0 -5.43904 -0.04519 6.2113 -0.6512 -5.48572 -10.19608 -4.38865 10.14323 -5.9387 21.59818 130.94319 126.36175 -57.19018 -8.03977 31.28509 21.71736 -23.34645 133.69229 -124.00111 -64.44321 7.59316 64.22282 4.0081 -11.74357 -87.58138 0.26747 -0.50636 3.58072 68.10112 -2.55563 -5.16143 -93.90913 -0.49797 0.7201 -2.9571
0.41258 0.71252 -0.03362 185.36161 0 -5.46489 0.26011 6.04452 -0.83167 -6.38035 -8.82078 -4.18089 11.80036 -7.0575 21.65224 131.36075 125.90673 -56.56855 -7.93923 32.13741 20.79642 -23.27016 133.68345 -124.04386 -65.19492 7.53617 64.2483 4.14799 -11.54789 -87.53152 0.19769 -0.45547 3.7982 68.12621 -2.48199 -5.18124 -93.90793 -0.56465 0.71768 -3.01041
0.41277 0.71263 -0.03369 185.30751 0 -5.48786 0.55207 5.88538 -0.99907 -7.15732 -7.53755 -3.96068 13.27989 -8.10064 21.70926 131.72814 125.49679 -56.01311 -7.85534 32.83907 19.9163 -23.24107 133.67675 -123.87447 -65.90072 7.60244 64.26928 4.26891 -11.38817 -87.49038 0.14867 -0.4143 3.9714 68.15402 -2.42023 -5.20453 -93.91215 -0.62644 0.71344 -3.06484
0.413 0.7128 -0.03377 185.24022 0 -5.51145 0.85103 5.71985 -1.15878 -7.94109 -6.20444 -3.7626 14.8388 -9.21252 21.82355 132.14466 125.03092 -55.3963 -7.7732 33.63602 19.03952 -23.19204 133.67216 -123.81526 -66.69187 7.66364 64.2871 4.39158 -11.2296 -87.43415 0.08631 -0.37074 4.15697 68.17656 -2.34155 -5.21227 -93.90553 -0.68947 0.71452 -3.10093
0.41315 0.71286 -0.03383 185.19577 0 -5.53535 1.1408 5.56495 -1.34064 -8.76794 -4.93657 -3.52358 16.30876 -10.20919 21.8067 132.47863 124.66144 -54.8793 -7.67911 34.29738 18.13623 -23.15952 133.66169 -123.63311 -67.31651 7.66673 64.3144 4.5203 -11.05021 -87.40682 0.04237 -0.32757 4.3376 68.20916 -2.29384 -5.25284 -93.92002 -0.75164 0.70463 -3.17747
0.41308 0.71263 -0.03384 185.221 0 -5.5574 1.40248 5.44292 -1.58746 -9.66041 -3.89604 -3.1572 17.46387 -10.85302 21.46296 132.55898 124.61525 -54.68426 -7.55305 34.52627 17.17731 -23.20504 133.63659 -123.00495 -67.4721 7.56949 64.36468 4.65368 -10.82846 -87.46145 0.05898 -0.28825 4.4914 68.27217 -2.34023 -5.38157 -93.99421 -0.81541 0.66668 -3.3556
0.41293 0.71229 -0.03384 185.26959 0 -5.57984 1.65296 5.33247 -1.85317 -10.5836 -2.92953 -2.75116 18.51072 -11.37472 20.98381 132.55364 124.662 -54.59104 -7.41749 34.60506 16.19742 -23.26739 133.60571 -122.24627 -67.4564 7.42043 64.42417 4.79182 -10.58949 -87.5456 0.09527 -0.25038 4.63564 68.34508 -2.41772 -5.5436 -94.08977 -0.87684 0.61734 -3.57516
0.4128 0.712 -0.03384 185.30623 0 -5.60294 1.90621 5.21686 -2.1017 -11.48529 -1.92879 -2.37058 19.59279 -11.95133 20.54791 132.59019 124.63936 -54.4392 -7.29177 34.74283 15.23099 -23.31413 133.57727 -121.5583 -67.51441 7.29423 64.47991 4.92922 -10.3612 -87.61696 0.12241 -0.21328 4.77816 68.41232 -2.47838 -5.69239 -94.17581 -0.93486 0.57143 -3.78161
0.41271 0.71173 -0.03384 185.34772 0 -5.62265 2.17101 5.09983 -2.38662 -12.43003 -0.92156 -1.95952 20.74815 -12.53524 20.18532 132.61762 124.72608 -54.33394 -7.14223 34.92942 14.24234 -23.39133 133.54935 -120.83404 -67.59112 7.1622 64.53457 5.06281 -10.11759 -87.68592 0.14941 -0.16956 4.94877 68.4845 -2.54994 -5.83425 -94.26138 -1.0116 0.5324 -3.96596
0.41253 0.71139 -0.03384 185.38501 0 -5.64949 2.40772 4.98927 -2.6012 -13.28649 0.04921 -1.60179 21.71863 -13.07335 19.64175 132.64223 124.61154 -54.15924 -7.03952 34.9754 13.29905 -23.41039 133.51913 -120.15101 -67.58858 7.0334 64.59307 5.20399 -9.90342 -87.7662 0.18147 -0.14007 5.0583 68.54866 -2.60624 -5.99711 -94.35237 -1.04931 0.47695 -4.20386
0.41213 0.71085 -0.03385 185.4041 0 -5.69557 2.5782 4.88908 -2.60418 -13.9116 0.96029 -1.40634 22.21811 -13.51053 18.60293 132.6817 123.88994 -53.75348 -7.07758 34.6643 12.46326 -23.26379 133.48319 -119.59923 -67.39779 6.92567 64.66372 5.37262 -9.77027 -87.87813 0.2263 -0.15121 4.99339 68.58932 -2.61449 -6.22174 -94.45918 -0.97385 0.37348 -4.59892
0.41165 0.71025 -0.03386 185.41836 0 -5.74881 2.71909 4.79596 -2.5377 -14.442 1.83155 -1.26519 22.53141 -13.9052 17.39266 132.72016 122.96926 -53.27838 -7.16184 34.21698 11.67895 -23.05876 133.4453 -119.09438 -67.13462 6.82433 64.7372 5.54707 -9.66861 -87.99917 0.27507 -0.17642 4.86838 68.62137 -2.60613 -6.46434 -94.56963 -0.86008 0.25478 -5.04313
0.41122 0.70971 -0.03387 185.43559 0 -5.79906 2.86773 4.70273 -2.51154 -15.001 2.70565 -1.0952 22.919 -14.32233 16.27925 132.75802 122.15759 -52.84409 -7.21883 33.83347 10.88615 -22.88155 133.40885 -118.57558 -66.91211 6.7216 64.80676 5.71363 -9.55582 -88.11099 0.3198 -0.19419 4.77578 68.65675 -2.60435 -6.69063 -94.67443 -0.76792 0.14676 -5.45159
0.4107 0.70907 -0.03391 185.45059 0 -5.84841 3.03992 4.59677 -2.45011 -15.62112 3.64353 -0.94007 23.34486 -14.72496 15.07913 132.79895 121.26686 -52.37086 -7.3009 33.43459 10.02824 -22.69941 133.36987 -118.02091 -66.65225 6.61037 64.88756 5.90255 -9.42883 -88.24487 0.37459 -0.21637 4.66148 68.69504 -2.60761 -6.9516 -94.79671 -0.65867 0.02293 -5.91663
0.41037 0.7086 -0.03387 185.46849 0 -5.9011 3.15633 4.51887 -2.44413 -16.09236 4.43777 -0.76908 23.65037 -15.14561 14.02316 132.83243 120.49733 -51.96496 -7.34314 33.04014 9.32021 -22.51362 133.33577 -117.55424 -66.45349 6.51925 64.94575 6.04616 -9.33929 -88.33507 0.40926 -0.23274 4.57807 68.72494 -2.59617 -7.14526 -94.88335 -0.57505 -0.07199 -6.27686
0.41059 0.70867 -0.03358 185.49799 0 -5.96317 3.1247 4.51664 -2.61904 -16.16418 4.86432 -0.52688 23.64929 -15.65776 13.38646 132.8633 120.06678 -51.7248 -7.25192 32.66763 8.99906 -22.32971 133.3153 -117.31766 -66.45604 6.4814 64.93842 6.06361 -9.34424 -88.29814 0.38614 -0.22928 4.59587 68.7351 -2.54667 -7.13884 -94.8691 -0.57951 -0.07849 -6.31863
0.41102 0.70891 -0.03321 185.53004 0 -6.02794 3.03831 4.54235 -2.8501 -16.09183 5.14432 -0.26977 23.53728 -16.18417 12.90521 132.88458 119.77197 -51.55937 -7.1206 32.30964 8.82992 -22.14387 133.29955 -117.17059 -66.52009 6.46414 64.9086 6.03517 -9.38603 -88.2176 0.34285 -0.21955 4.64662 68.73688 -2.48311 -7.06559 -94.81911 -0.60987 -0.05613 -6.25594
0.41135 0.70906 -0.03289 185.55917 0 -6.09026 2.97781 4.55534 -3.04823 -16.09234 5.4794 -0.02885 23.4901 -16.68419 12.36712 132.89808 119.44492 -51.38592 -7.01661 31.96096 8.60057 -21.96115 133.28234 -116.98193 -66.54784 6.43798 64.89064 6.0274 -9.41195 -88.15969 0.30948 -0.21293 4.68157 68.74146 -2.42677 -7.02938 -94.78638 -0.62289 -0.05024 -6.25236
0.4117 0.70927 -0.03253 185.59543 0 -6.15819 2.91177 4.56879 -3.275 -16.05691 5.8623 0.2503 23.37726 -17.26703 11.76497 132.9596 118.99059 -51.10821 -6.87886 31.53941 8.33499 -21.76949 133.2636 -116.79173 -66.6106 6.40941 64.866 6.0205 -9.43561 -88.09023 0.27282 -0.20571 4.718 68.74968 -2.3662 -6.96621 -94.74929 -0.65705 -0.03112 -6.20248
0.41205 0.7094 -0.03223 185.61772 0 -6.21476 2.84499 4.58765 -3.45664 -16.06543 6.11053 0.45362 23.37506 -17.68092 11.33504 132.92282 118.83124 -51.05674 -6.79746 31.27595 8.18098 -21.59356 133.24742 -116.6341 -66.613 6.39153 64.84973 6.00095 -9.47191 -88.03437 0.2385 -0.19804 4.75982 68.74884 -2.3115 -6.94238 -94.71297 -0.6551 -0.03203 -6.22225
0.41235 0.70926 -0.03209 185.59875 0 -6.24105 2.78656 4.61607 -3.49778 -16.21274 6.02947 0.44774 23.72591 -17.62803 11.34732 132.58221 119.49578 -51.69601 -6.91588 31.43809 8.29238 -21.49127 133.2535 -116.46705 -66.46193 6.38912 64.86359 5.95655 -9.53727 -88.02632 0.21237 -0.19091 4.80995 68.72149 -2.27474 -7.04914 -94.68544 -0.53623 -0.09928 -6.47047
0.41263 0.70905 -0.032 185.566 0 -6.25544 2.72992 4.64868 -3.49228 -16.41293 5.81667 0.36455 24.18936 -17.40404 11.52762 132.14902 120.44501 -52.54633 -7.087 31.76142 8.51183 -21.40111 133.25976 -116.34173 -66.24439 6.39725 64.88639 5.90122 -9.61328 -88.03346 0.18977 -0.18343 4.86437 68.68594 -2.24473 -7.19649 -94.66024 -0.3822 -0.18683 -6.78986
